<mxfile host="app.diagrams.net" modified="2021-02-12T16:26:31.337Z" agent="5.0 (Windows NT 10.0; Win64; x64) AppleWebKit/537.36 (KHTML, like Gecko) Chrome/88.0.4324.150 Safari/537.36" etag="gl536oEtrp8qo0kWn5j0" version="14.3.0" type="github">
  <diagram id="B-X7toSWsbW9waI3QObr" name="Page-1">
    <mxGraphModel dx="1422" dy="762" grid="1" gridSize="10" guides="1" tooltips="1" connect="1" arrows="1" fold="1" page="1" pageScale="1" pageWidth="850" pageHeight="1100" math="0" shadow="0">
      <root>
        <mxCell id="0" />
        <mxCell id="1" parent="0" />
        <mxCell id="Rm3uAfwvsRZHLC_ohf2W-15" style="edgeStyle=orthogonalEdgeStyle;rounded=0;orthogonalLoop=1;jettySize=auto;html=1;" edge="1" parent="1" source="Rm3uAfwvsRZHLC_ohf2W-1" target="Rm3uAfwvsRZHLC_ohf2W-2">
          <mxGeometry relative="1" as="geometry" />
        </mxCell>
        <mxCell id="Rm3uAfwvsRZHLC_ohf2W-16" style="edgeStyle=orthogonalEdgeStyle;rounded=0;orthogonalLoop=1;jettySize=auto;html=1;entryX=0.583;entryY=0.033;entryDx=0;entryDy=0;entryPerimeter=0;" edge="1" parent="1" source="Rm3uAfwvsRZHLC_ohf2W-1" target="Rm3uAfwvsRZHLC_ohf2W-4">
          <mxGeometry relative="1" as="geometry" />
        </mxCell>
        <mxCell id="Rm3uAfwvsRZHLC_ohf2W-17" style="edgeStyle=orthogonalEdgeStyle;rounded=0;orthogonalLoop=1;jettySize=auto;html=1;" edge="1" parent="1" source="Rm3uAfwvsRZHLC_ohf2W-1" target="Rm3uAfwvsRZHLC_ohf2W-3">
          <mxGeometry relative="1" as="geometry" />
        </mxCell>
        <mxCell id="Rm3uAfwvsRZHLC_ohf2W-1" value="App.Js" style="rounded=1;whiteSpace=wrap;html=1;" vertex="1" parent="1">
          <mxGeometry x="380" y="50" width="120" height="60" as="geometry" />
        </mxCell>
        <mxCell id="Rm3uAfwvsRZHLC_ohf2W-2" value="Header" style="rounded=1;whiteSpace=wrap;html=1;" vertex="1" parent="1">
          <mxGeometry x="170" y="170" width="140" height="60" as="geometry" />
        </mxCell>
        <mxCell id="Rm3uAfwvsRZHLC_ohf2W-3" value="NavBar" style="rounded=1;whiteSpace=wrap;html=1;" vertex="1" parent="1">
          <mxGeometry x="540" y="170" width="120" height="60" as="geometry" />
        </mxCell>
        <mxCell id="Rm3uAfwvsRZHLC_ohf2W-22" style="edgeStyle=orthogonalEdgeStyle;rounded=0;orthogonalLoop=1;jettySize=auto;html=1;entryX=0.5;entryY=0;entryDx=0;entryDy=0;" edge="1" parent="1" source="Rm3uAfwvsRZHLC_ohf2W-4" target="Rm3uAfwvsRZHLC_ohf2W-18">
          <mxGeometry relative="1" as="geometry">
            <Array as="points">
              <mxPoint x="430" y="240" />
              <mxPoint x="210" y="240" />
            </Array>
          </mxGeometry>
        </mxCell>
        <mxCell id="Rm3uAfwvsRZHLC_ohf2W-23" style="edgeStyle=orthogonalEdgeStyle;rounded=0;orthogonalLoop=1;jettySize=auto;html=1;" edge="1" parent="1" source="Rm3uAfwvsRZHLC_ohf2W-4" target="Rm3uAfwvsRZHLC_ohf2W-19">
          <mxGeometry relative="1" as="geometry" />
        </mxCell>
        <mxCell id="Rm3uAfwvsRZHLC_ohf2W-24" style="edgeStyle=orthogonalEdgeStyle;rounded=0;orthogonalLoop=1;jettySize=auto;html=1;" edge="1" parent="1" source="Rm3uAfwvsRZHLC_ohf2W-4" target="Rm3uAfwvsRZHLC_ohf2W-20">
          <mxGeometry relative="1" as="geometry" />
        </mxCell>
        <mxCell id="Rm3uAfwvsRZHLC_ohf2W-25" style="edgeStyle=orthogonalEdgeStyle;rounded=0;orthogonalLoop=1;jettySize=auto;html=1;" edge="1" parent="1" source="Rm3uAfwvsRZHLC_ohf2W-4" target="Rm3uAfwvsRZHLC_ohf2W-21">
          <mxGeometry relative="1" as="geometry">
            <Array as="points">
              <mxPoint x="430" y="250" />
              <mxPoint x="700" y="250" />
            </Array>
          </mxGeometry>
        </mxCell>
        <mxCell id="Rm3uAfwvsRZHLC_ohf2W-4" value="SodaControl" style="rounded=1;whiteSpace=wrap;html=1;" vertex="1" parent="1">
          <mxGeometry x="370" y="170" width="120" height="60" as="geometry" />
        </mxCell>
        <mxCell id="Rm3uAfwvsRZHLC_ohf2W-18" value="Soda List" style="rounded=1;whiteSpace=wrap;html=1;" vertex="1" parent="1">
          <mxGeometry x="150" y="280" width="120" height="60" as="geometry" />
        </mxCell>
        <mxCell id="Rm3uAfwvsRZHLC_ohf2W-19" value="New Soda Form" style="rounded=1;whiteSpace=wrap;html=1;" vertex="1" parent="1">
          <mxGeometry x="310" y="280" width="120" height="60" as="geometry" />
        </mxCell>
        <mxCell id="Rm3uAfwvsRZHLC_ohf2W-20" value="Soda Detail" style="rounded=1;whiteSpace=wrap;html=1;" vertex="1" parent="1">
          <mxGeometry x="480" y="280" width="120" height="60" as="geometry" />
        </mxCell>
        <mxCell id="Rm3uAfwvsRZHLC_ohf2W-21" value="Edit Soda Form" style="rounded=1;whiteSpace=wrap;html=1;" vertex="1" parent="1">
          <mxGeometry x="640" y="280" width="120" height="60" as="geometry" />
        </mxCell>
        <mxCell id="Rm3uAfwvsRZHLC_ohf2W-26" value="V1" style="rounded=1;whiteSpace=wrap;html=1;" vertex="1" parent="1">
          <mxGeometry x="40" width="120" height="60" as="geometry" />
        </mxCell>
      </root>
    </mxGraphModel>
  </diagram>
</mxfile>
